<svg width="22" height="24" viewBox="0 0 22 24" fill="none" xmlns="http://www.w3.org/2000/svg">
<path d="M11.6868 21.9067C11.6255 22.3472 11.4194 22.7506 11.1047 23.0454C10.7901 23.3402 10.3869 23.5077 9.96704 23.5181C9.53564 23.5247 9.11599 23.3652 8.78735 23.0688C8.4587 22.7725 8.24291 22.3592 8.17993 21.9067H11.6868Z" fill="white"/>
<path d="M11.6868 21.9067C11.6255 22.3472 11.4194 22.7506 11.1047 23.0454C10.7901 23.3402 10.3869 23.5077 9.96704 23.5181C9.53564 23.5247 9.11599 23.3652 8.78735 23.0688C8.4587 22.7725 8.24291 22.3592 8.17993 21.9067H11.6868Z" stroke="white"/>
<path d="M19.7718 18.4149C19.1246 17.8254 18.558 17.1496 18.0872 16.4057C17.5733 15.3788 17.2653 14.2573 17.1812 13.1072V9.71956C17.1785 9.30807 17.1426 8.89752 17.0738 8.49206C16.5456 8.38417 16.0379 8.18964 15.5705 7.91603C15.7486 8.50224 15.8392 9.11259 15.8389 9.72642V13.114C15.9212 14.5171 16.2989 15.8855 16.9463 17.1257C17.4097 17.8759 17.9595 18.5666 18.5839 19.183H1.39597C2.02041 18.5666 2.5702 17.8759 3.03356 17.1257C3.68095 15.8855 4.05868 14.5171 4.14094 13.114V9.71956C4.13741 8.92593 4.28712 8.13938 4.5815 7.40495C4.87589 6.67052 5.30917 6.00264 5.85652 5.43954C6.40388 4.87645 7.05456 4.4292 7.77132 4.12341C8.48808 3.81762 9.25683 3.65929 10.0336 3.6575C11.1703 3.65843 12.2816 4.00192 13.2282 4.64498C13.1238 4.25341 13.0653 3.85058 13.0537 3.44492V3.01289C12.3529 2.66066 11.6001 2.42896 10.8255 2.32714V1.46309C10.8255 1.22029 10.7311 0.987432 10.5631 0.815746C10.3951 0.64406 10.1672 0.547607 9.92953 0.547607C9.6919 0.547607 9.46401 0.64406 9.29598 0.815746C9.12795 0.987432 9.03356 1.22029 9.03356 1.46309V2.36143C7.29914 2.61142 5.71179 3.49411 4.56458 4.84655C3.41736 6.19899 2.78774 7.92984 2.79195 9.71956V13.1072C2.70789 14.2573 2.39985 15.3788 1.88591 16.4057C1.42341 17.1479 0.865903 17.8236 0.228188 18.4149C0.156598 18.4792 0.0992224 18.5583 0.0598775 18.647C0.0205325 18.7356 0.000120669 18.8319 0 18.9292V19.8619C0 20.0437 0.0707093 20.2182 0.196573 20.3468C0.322436 20.4754 0.493143 20.5476 0.671141 20.5476H19.3289C19.5069 20.5476 19.6776 20.4754 19.8034 20.3468C19.9293 20.2182 20 20.0437 20 19.8619V18.9292C19.9999 18.8319 19.9795 18.7356 19.9401 18.647C19.9008 18.5583 19.8434 18.4792 19.7718 18.4149Z" fill="white"/>
<path d="M17.9663 0C19.8072 0 21.3002 1.58186 21.3003 3.5332C21.3003 5.48461 19.8072 7.06641 17.9663 7.06641C16.1255 7.06623 14.6333 5.4845 14.6333 3.5332C14.6334 1.58196 16.1256 0.000174811 17.9663 0Z" fill="url(#paint0_linear_1_48)"/>
<path d="M17.9663 0C19.8072 0 21.3002 1.58186 21.3003 3.5332C21.3003 5.48461 19.8072 7.06641 17.9663 7.06641C16.1255 7.06623 14.6333 5.4845 14.6333 3.5332C14.6334 1.58196 16.1256 0.000174811 17.9663 0Z" stroke="white"/>
<defs>
<linearGradient id="paint0_linear_1_48" x1="17.9666" y1="0" x2="17.9666" y2="7.06667" gradientUnits="userSpaceOnUse">
<stop stop-color="#326CFF"/>
<stop offset="1" stop-color="#26FFF2"/>
</linearGradient>
</defs>
</svg>
